HIERARCHY
ROOT Hips
{
  OFFSET 16.003 100.059 133.167
  CHANNELS 6 Xposition Yposition Zposition Zrotation Xrotation Yrotation
  JOINT RightUpLeg
  {
    OFFSET -8.9458 -8.66707 0.101652
    CHANNELS 3 Zrotation Xrotation Yrotation
    JOINT RightLeg
    {
      OFFSET 0 -44.4227 1.3727
      CHANNELS 3 Zrotation Xrotation Yrotation
      JOINT RightFoot
      {
        OFFSET 0.253549 -42.0924 -1.46059
        CHANNELS 3 Zrotation Xrotation Yrotation
        JOINT RightToes
        {
          OFFSET 0.04 -4.41509 8.4991
          CHANNELS 3 Zrotation Xrotation Yrotation
          End Site
          {
            OFFSET -0.08 -0.137448 9.77979
          }
        }
      }
    }
  }
  JOINT Spine
  {
    OFFSET 0 11.8905 0
    CHANNELS 3 Zrotation Xrotation Yrotation
    JOINT Spine1
    {
      OFFSET 0 25.6574 0.127663
      CHANNELS 3 Zrotation Xrotation Yrotation
      JOINT HEad
      {
        OFFSET 0 8.73416 0.011341
        CHANNELS 3 Zrotation Xrotation Yrotation
        End Site
        {
          OFFSET -0.29 12.7742 2.51395
        }
      }
      JOINT LeftShoulder1
      {
        OFFSET 8.99 -0.362252 -0.22
        CHANNELS 3 Zrotation Xrotation Yrotation
        JOINT LeftArm
        {
          OFFSET 10.2827 -0.00338 0.322123
          CHANNELS 3 Zrotation Xrotation Yrotation
          JOINT LeftForeArm
          {
            OFFSET 32.7669 0.099144 -1.42434
            CHANNELS 3 Zrotation Xrotation Yrotation
            JOINT LeftHand
            {
              OFFSET 27.5643 0.085362 1.02216
              CHANNELS 3 Zrotation Xrotation Yrotation
              End Site
              {
                OFFSET 16.7443 -0.6 1.50291
              }
            }
          }
        }
      }
      JOINT RightShoulder
      {
        OFFSET -8.99 -0.362252 -0.22
        CHANNELS 3 Zrotation Xrotation Yrotation
        JOINT RightArm
        {
          OFFSET -10.2827 -0.00338 0.322123
          CHANNELS 3 Zrotation Xrotation Yrotation
          JOINT RightForeArm
          {
            OFFSET -32.8971 0.099144 -1.42434
            CHANNELS 3 Zrotation Xrotation Yrotation
            JOINT RightHand
            {
              OFFSET -27.4921 0.085362 1.02216
              CHANNELS 3 Zrotation Xrotation Yrotation
              End Site
              {
                OFFSET -16.6312 -0.6 1.50291
              }
            }
          }
        }
      }
    }
  }
  JOINT LeftUpLeg
  {
    OFFSET 8.9458 -8.66707 0.101652
    CHANNELS 3 Zrotation Xrotation Yrotation
    JOINT LeftLeg
    {
      OFFSET 0 -44.4227 1.3727
      CHANNELS 3 Zrotation Xrotation Yrotation
      JOINT LeftFoot
      {
        OFFSET -0.253549 -42.0924 -1.46059
        CHANNELS 3 Zrotation Xrotation Yrotation
        JOINT LeftToes
        {
          OFFSET -0.04 -4.41509 8.4991
          CHANNELS 3 Zrotation Xrotation Yrotation
          End Site
          {
            OFFSET 0.08 -0.047448 9.77979
          }
        }
      }
    }
  }
}
MOTION
Frames:	12
Frame Time:	0.0166667
16.003 100.059 133.167 2.91623 0.077636 178.838 7.83973 -29.1588 -1.38569 -0.120033 33.1706 -4.02896 0.779306 -7.03882 -0.169787 0.416349 -0.167426 1.38728 -0.886895 2.92821 0.491793 2.52712 8.47958 -0.285421 8.20461 -1.9466 -7.2621 -3.97569e-016 0 3.97569e-016 -97.5945 -15.7173 -27.4207 -9.1881 12.764 -3.6307 0.368626 9.92461 4.83566 2.66291 -0.718363 -10.1515 72.7073 -53.9042 3.429 -0.0516978 12.8698 -4.40006 -0.368133 9.89824 4.83781 1.02013 9.14616 0.427575 -2.48711 31.7373 35.4359 -31.3609 0.318864 1.21726 0.037364 0.447054 0.317001 
16.253 100.183 130.996 3.56443 0.0855885 178.313 8.85484 -27.9318 -1.16157 -0.0179064 33.8639 -3.45073 0.225564 -8.61262 -0.190099 -0.843094 -0.867762 -0.120127 -0.864466 2.93394 0.722464 3.65985 8.22568 -0.418212 7.77151 -1.49796 -6.84374 -4.96962e-017 1.59028e-015 -0 -98.5704 -17.8854 -26.1166 -8.14343 12.7134 -3.27587 0.368626 9.92461 4.83566 2.05852 -0.655142 -9.86929 75.6444 -51.9511 5.80033 0.978066 12.8103 -4.1028 -0.368133 9.89824 4.83781 1.80187 6.85303 -0.0554524 -2.83457 37.0504 36.7869 -30.3315 2.6198 1.77932 2.92748 2.03365 1.30732 
16.5123 100.33 128.871 4.14855 0.0983693 177.916 9.73887 -26.6573 -0.925088 0.143708 34.3821 -3.11556 -0.263027 -10.0538 -0.211721 -1.98279 -1.68994 -1.30189 -0.744285 2.95494 0.899407 4.58933 8.01051 -0.524227 7.41008 -1.06239 -6.50602 -9.93923e-017 4.77083e-015 -3.97569e-016 -99.2964 -19.9505 -25.0071 -7.1415 12.6579 -2.63143 0.368626 9.92461 4.83566 1.6109 -0.597175 -9.5509 78.2042 -49.8322 7.93004 2.1609 12.7468 -3.73395 -0.368133 9.89824 4.83781 2.41809 4.51933 -0.441737 -3.13432 42.0668 38.2126 -29.4092 4.24073 2.16366 2.03687 4.04345 2.88108 
16.8132 100.532 126.846 4.59412 0.137193 177.812 10.3554 -25.2071 -0.530375 0.541002 34.4129 -3.56184 -0.599163 -11.1365 -0.240038 -2.62986 -2.88752 -1.42838 -0.311641 3.02525 0.927538 4.98218 7.88594 -0.557952 7.2028 -0.606934 -6.3342 -4.96962e-017 -4.77083e-015 3.97569e-016 -99.5385 -21.8058 -24.3604 -6.30722 12.5728 -1.21963 0.368626 9.92461 4.83566 1.57338 -0.542514 -9.02895 80.0437 -47.3478 9.5414 3.84571 12.6697 -3.10436 -0.368133 9.89824 4.83781 2.69089 2.13396 -0.430692 -2.38076 46.5233 38.5603 -28.6635 4.00486 2.04193 -11.6481 7.84059 6.76768 
17.0964 100.771 124.949 4.86731 0.157803 178.012 10.6201 -23.7767 -0.347594 0.983463 34.2016 -4.19955 -0.779039 -12.0078 -0.262719 -3.19863 -4.19066 -1.38421 0.180694 3.10416 0.877175 5.03287 7.85147 -0.549824 7.228 -0.288017 -6.39203 -4.96962e-017 -3.18055e-015 -0 -99.5524 -23.1619 -24.1186 -5.43011 12.4933 0.683406 0.368626 9.92461 4.83566 1.81565 -0.518497 -8.66116 81.7287 -44.6386 11.3539 5.59794 12.5902 -2.49496 -0.368133 9.89824 4.83781 2.72111 -0.429046 -0.567786 -1.14636 50.3921 38.4565 -28.0466 2.7319 1.66059 -26.857 10.896 10.2405 
17.3007 101.05 123.301 4.89329 0.103667 178.765 10.3504 -22.5886 -0.870953 1.32303 33.8571 -4.59354 -0.71631 -12.6931 -0.264412 -4.0614 -5.40847 -1.84514 0.500629 3.15151 0.792015 4.82593 7.99675 -0.517578 7.68676 -0.364978 -6.93352 9.93923e-017 3.18055e-015 -1.98785e-016 -99.5282 -23.2588 -24.4623 -4.2149 12.4483 3.38145 0.368626 9.92461 4.83566 2.39148 -0.580866 -8.97893 83.5912 -41.6597 14.0667 7.10374 12.5204 -2.14529 -0.368133 9.89824 4.83781 2.41807 -3.48266 -1.52731 0.0138013 53.5296 38.3874 -27.5814 0.611432 1.1076 -32.7131 10.5486 10.1799 
17.4643 101.335 121.682 4.72488 0.0326527 179.522 9.85669 -21.4358 -1.52083 1.59424 33.4915 -4.81125 -0.569091 -13.3314 -0.259148 -5.17291 -6.55082 -2.71643 0.80061 3.19954 0.656831 4.35522 8.10309 -0.45344 8.28319 -0.494692 -7.4725 7.45443e-017 -3.18055e-015 -0 -99.3637 -23.4139 -24.9027 -3.06442 12.4297 5.61717 0.368626 9.92461 4.83566 3.00401 -0.642959 -9.29373 85.39 -38.636 17.0338 8.3427 12.4559 -1.98894 -0.368133 9.89824 4.83781 1.79603 -6.47039 -2.6258 1.23902 55.7164 38.1388 -27.2459 -1.64612 0.539846 -33.886 9.1741 8.88183 
17.6032 101.614 119.842 4.32533 0.00255103 179.646 9.366 -20.0953 -1.64677 1.78832 33.2128 -4.81343 -0.459413 -14.0194 -0.253951 -7.00806 -7.9056 -4.48358 1.17495 3.27739 0.450309 3.56353 7.89169 -0.344332 8.77157 -0.309783 -7.45178 -4.96962e-017 -1.59028e-015 -4.96962e-017 -98.9707 -25.1021 -24.9287 -2.41881 12.5084 5.77421 0.368626 9.92461 4.83566 3.33544 -0.61241 -8.88795 87.1902 -35.9288 19.9029 9.12534 12.3975 -2.0608 -0.368133 9.89824 4.83781 0.932647 -8.77123 -3.24262 2.52149 56.5041 37.7287 -26.9192 -3.20288 0.157468 -30.5741 8.24055 7.5284 
17.7235 101.825 117.995 3.87577 -0.0425254 179.646 8.79043 -18.8514 -2.01872 1.91285 33.1383 -4.4983 -0.41166 -14.9094 -0.255142 -8.39486 -8.43244 -6.08671 1.56665 3.35417 0.234373 2.69238 7.63234 -0.224395 9.2268 -0.14559 -7.33852 -6.21202e-017 -3.18055e-015 -0 -98.4755 -27.1251 -24.8826 -1.86949 12.6059 5.23504 0.368626 9.92461 4.83566 3.50816 -0.563103 -8.37999 89.0578 -33.1686 22.9177 9.64556 12.3396 -2.29654 -0.368133 9.89824 4.83781 0.0747414 -10.9092 -3.82858 3.52511 56.4319 37.2133 -26.7045 -4.24682 -0.0936347 -26.0619 7.65258 6.47771 
17.8404 101.873 116.317 3.56272 -0.157395 179.951 8.05032 -18.0244 -3.75788 1.86476 33.5744 -3.34375 -0.503194 -16.3581 -0.271719 -7.52734 -6.396 -6.24485 1.905 3.41093 0.0719435 1.98308 7.53726 -0.127418 9.66759 -0.297407 -7.55408 4.96962e-017 0 -0 -98.0325 -28.5502 -25.006 -1.01238 12.6376 4.89831 0.368626 9.92461 4.83566 3.58007 -0.55866 -8.32328 91.042 -30.0554 26.2764 10.0192 12.2708 -2.70385 -0.368133 9.89824 4.83781 -0.572156 -13.3313 -4.86527 3.61603 56.0643 36.9275 -26.667 -4.29762 -0.103327 -24.3908 8.3338 7.09826 
17.9416 101.848 114.682 3.33975 -0.287566 -179.83 7.51165 -17.2549 -5.10217 1.91156 34.0465 -2.54076 -0.700631 -17.8485 -0.30392 -6.36673 -4.25054 -6.05616 2.32311 3.44115 -0.061154 1.37226 7.50055 -0.0404158 10.0191 -0.518235 -7.67801 -6.60027e-017 3.18055e-015 6.21202e-018 -97.5071 -30.0181 -24.9664 -0.280758 12.6474 4.59976 0.368626 9.92461 4.83566 3.43157 -0.53854 -8.19501 92.8959 -26.8 29.6325 10.2919 12.2072 -3.10166 -0.368133 9.89824 4.83781 -1.07077 -15.6278 -5.68365 3.61631 54.9281 36.2941 -26.8276 -4.52395 -0.158543 -23.3141 8.74026 7.51404 
18.0156 101.824 113.02 3.22552 -0.389735 -179.991 7.53766 -16.2065 -4.06084 2.59489 34.0585 -3.51774 -1.09612 -19.241 -0.373109 -5.40997 -1.01735 -8.34568 2.97594 3.43086 -0.173113 0.885491 7.49209 0.0391208 10.2045 -0.622258 -7.36879 9.93923e-017 3.18055e-015 -4.96962e-017 -96.7952 -31.9781 -24.5082 0.0371652 12.6529 4.4726 0.368626 9.92461 4.83566 2.91241 -0.450678 -7.59662 94.5024 -23.5147 32.7367 10.566 12.164 -3.27802 -0.368133 9.89824 4.83781 -1.27775 -17.5404 -5.59219 4.2146 52.6558 34.8009 -27.3317 -6.44152 -0.635445 -21.468 6.97469 5.58803 
